<svg width="321" height="176" viewBox="0 0 321 176" fill="none" xmlns="http://www.w3.org/2000/svg">
<g clip-path="url(#clip0)">
<rect x="174.609" width="21.1648" height="21.1648" rx="0.881868" fill="#626262"/>
<rect x="121.697" y="52.9121" width="21.1648" height="21.1648" rx="0.881868" fill="#14AEA3"/>
<rect x="121.698" y="6.10352e-05" width="21.1648" height="21.1648" rx="0.881868" fill="#626262"/>
<rect x="148.153" y="26.4561" width="21.1648" height="21.1648" rx="0.881868" fill="#626262"/>
<rect x="174.609" y="52.9121" width="21.1648" height="21.1648" rx="0.881868" fill="#626262"/>
<path d="M123.461 1.76373L192.247 70.5494" stroke="#626262" stroke-width="3.52747" stroke-linecap="round" stroke-linejoin="round"/>
<rect x="148.153" width="21.1648" height="21.1648" rx="0.881868" fill="#626262"/>
<path d="M174.609 27.3379C174.609 26.8509 175.004 26.4561 175.491 26.4561H194.892C195.379 26.4561 195.774 26.8509 195.774 27.3379V46.739C195.774 47.2261 195.379 47.6209 194.892 47.6209H175.491C175.004 47.6209 174.609 47.2261 174.609 46.739V27.3379Z" fill="#626262"/>
<path d="M158.735 10.5824L188.719 40.5659" stroke="#626262" stroke-width="3.52747" stroke-linecap="round" stroke-linejoin="round"/>
<path d="M141.18 160.913C140.136 160.913 139.253 160.592 138.531 159.95C137.849 159.308 137.507 158.505 137.507 157.542V122.085C137.507 121.162 137.849 120.379 138.531 119.737C139.253 119.095 140.136 118.774 141.18 118.774H154.784C158.276 118.774 161.366 119.436 164.055 120.76C166.784 122.085 168.891 123.951 170.376 126.359C171.861 128.767 172.603 131.536 172.603 134.666V144.84C172.603 147.97 171.841 150.759 170.316 153.208C168.831 155.616 166.724 157.502 163.995 158.866C161.306 160.231 158.236 160.913 154.784 160.913H141.18ZM154.182 154.652C157.754 154.652 160.503 153.81 162.43 152.124C164.396 150.438 165.379 148.051 165.379 144.96V134.606C165.379 131.516 164.416 129.148 162.49 127.503C160.564 125.857 157.794 125.034 154.182 125.034H144.731V154.652H154.182ZM183.941 126.84C182.617 126.84 181.513 126.439 180.63 125.636C179.747 124.794 179.306 123.75 179.306 122.506C179.306 121.262 179.747 120.239 180.63 119.436C181.513 118.633 182.617 118.232 183.941 118.232C185.265 118.232 186.369 118.633 187.252 119.436C188.135 120.239 188.576 121.262 188.576 122.506C188.576 123.75 188.135 124.794 187.252 125.636C186.369 126.439 185.265 126.84 183.941 126.84ZM180.57 134.606C180.57 133.081 181.132 131.977 182.255 131.295C183.379 130.613 185.065 130.272 187.312 130.272V157.12C187.312 158.646 186.75 159.749 185.627 160.431C184.503 161.114 182.817 161.455 180.57 161.455V134.606ZM208.458 173.495C206.171 173.495 204.104 173.153 202.258 172.471C200.452 171.829 199.027 170.926 197.984 169.762C196.94 168.639 196.419 167.415 196.419 166.09C196.419 163.762 198.044 162.599 201.295 162.599C201.415 164.324 202.077 165.669 203.281 166.632C204.525 167.595 206.251 168.077 208.458 168.077C210.906 168.077 212.652 167.475 213.696 166.271C214.779 165.067 215.321 163.381 215.321 161.214V158.686C215.923 158.244 216.365 157.823 216.645 157.421L216.405 157.12C215.321 158.204 213.896 159.107 212.131 159.829C210.365 160.512 208.699 160.853 207.134 160.853C204.887 160.853 202.88 160.411 201.114 159.528C199.348 158.605 197.944 157.341 196.9 155.736C195.897 154.131 195.395 152.285 195.395 150.198V140.987C195.395 138.981 195.917 137.155 196.96 135.509C198.044 133.864 199.469 132.579 201.235 131.656C203 130.733 204.907 130.272 206.953 130.272C210.967 130.272 214.237 131.977 216.766 135.389L217.067 135.148C216.585 134.506 216.184 134.004 215.863 133.643C215.863 131.395 217.97 130.272 222.184 130.272V160.311C222.184 162.88 221.602 165.167 220.438 167.174C219.274 169.18 217.649 170.725 215.562 171.809C213.475 172.933 211.107 173.495 208.458 173.495ZM208.759 155.014C210.646 155.014 212.231 154.532 213.515 153.569C214.799 152.565 215.441 151.382 215.441 150.017V141.108C215.441 139.703 214.799 138.519 213.515 137.556C212.271 136.553 210.706 136.051 208.82 136.051C206.693 136.051 205.047 136.512 203.883 137.435C202.719 138.358 202.138 139.683 202.138 141.409V149.776C202.138 151.422 202.699 152.706 203.823 153.629C204.987 154.552 206.632 155.014 208.759 155.014ZM234.205 126.84C232.88 126.84 231.777 126.439 230.894 125.636C230.011 124.794 229.569 123.75 229.569 122.506C229.569 121.262 230.011 120.239 230.894 119.436C231.777 118.633 232.88 118.232 234.205 118.232C235.529 118.232 236.633 118.633 237.516 119.436C238.399 120.239 238.84 121.262 238.84 122.506C238.84 123.75 238.399 124.794 237.516 125.636C236.633 126.439 235.529 126.84 234.205 126.84ZM230.834 134.606C230.834 133.081 231.395 131.977 232.519 131.295C233.643 130.613 235.328 130.272 237.576 130.272V157.12C237.576 158.646 237.014 159.749 235.89 160.431C234.767 161.114 233.081 161.455 230.834 161.455V134.606ZM258.575 161.455C255.445 161.455 253.117 160.552 251.592 158.746C250.107 156.94 249.365 154.612 249.365 151.763V135.93H243.345C243.345 134.205 243.686 132.921 244.368 132.078C245.051 131.235 245.974 130.814 247.138 130.814H249.425V125.576C249.425 124.051 249.967 122.948 251.051 122.265C252.174 121.583 253.84 121.242 256.047 121.242V130.814H264.054C264.054 132.62 263.692 133.924 262.97 134.726C262.248 135.529 261.104 135.93 259.539 135.93H256.107V151.522C256.107 152.967 256.388 154.01 256.95 154.652C257.512 155.254 258.495 155.555 259.9 155.555C261.304 155.555 262.689 155.174 264.054 154.412C264.415 154.733 264.676 155.134 264.836 155.616C265.037 156.097 265.137 156.599 265.137 157.12C265.137 158.244 264.555 159.248 263.391 160.13C262.227 161.013 260.622 161.455 258.575 161.455ZM279.479 161.455C277.352 161.455 275.426 161.053 273.7 160.251C271.975 159.448 270.61 158.284 269.607 156.759C268.604 155.234 268.102 153.448 268.102 151.402C268.102 149.315 268.624 147.509 269.667 145.984C270.751 144.419 272.215 143.235 274.062 142.432C275.908 141.589 277.975 141.168 280.262 141.168C283.914 141.168 286.984 142.412 289.472 144.9L289.773 144.599C289.051 143.877 288.469 143.355 288.028 143.034V141.348C288.028 139.583 287.426 138.198 286.222 137.195C285.018 136.151 283.332 135.629 281.165 135.629C279.239 135.629 277.553 136.011 276.108 136.773C274.664 137.496 273.5 138.579 272.617 140.024C271.814 139.743 271.132 139.302 270.57 138.7C270.048 138.098 269.787 137.456 269.787 136.773C269.787 135.609 270.329 134.526 271.413 133.523C272.496 132.519 273.941 131.737 275.747 131.175C277.593 130.573 279.58 130.272 281.707 130.272C285.8 130.272 288.971 131.255 291.218 133.222C293.506 135.148 294.65 137.797 294.65 141.168V156.759C294.65 158.405 294.148 159.609 293.145 160.371C292.141 161.094 290.536 161.455 288.329 161.455V158.866C289.051 158.144 289.533 157.622 289.773 157.301L289.472 157.06C288.188 158.505 286.743 159.609 285.138 160.371C283.573 161.094 281.687 161.455 279.479 161.455ZM281.045 156.398C283.252 156.398 284.978 155.957 286.222 155.074C287.506 154.191 288.148 152.947 288.148 151.341C288.148 149.736 287.506 148.492 286.222 147.609C284.978 146.686 283.272 146.224 281.105 146.224C279.138 146.224 277.573 146.686 276.409 147.609C275.286 148.492 274.724 149.736 274.724 151.341C274.724 152.987 275.286 154.251 276.409 155.134C277.533 155.977 279.078 156.398 281.045 156.398ZM311.389 161.455C308.178 161.455 305.77 160.552 304.165 158.746C302.56 156.94 301.757 154.612 301.757 151.763V122.566C301.757 121.041 302.299 119.938 303.382 119.255C304.506 118.573 306.212 118.232 308.499 118.232V151.522C308.499 152.967 308.8 154.01 309.402 154.652C310.044 155.254 311.068 155.555 312.472 155.555C314.037 155.555 315.462 155.174 316.746 154.412C317.108 154.733 317.389 155.154 317.589 155.676C317.79 156.157 317.89 156.639 317.89 157.12C317.89 158.244 317.308 159.248 316.144 160.13C315.021 161.013 313.435 161.455 311.389 161.455Z" fill="#14AEA3"/>
<path d="M17.3975 124.247C16.5146 124.247 15.7922 123.986 15.2303 123.465C14.6685 122.903 14.3875 122.201 14.3875 121.358C14.3875 120.314 14.8089 119.391 15.6517 118.589C16.4945 117.746 17.4778 117.324 18.6015 117.324C19.4844 117.324 20.2068 117.605 20.7686 118.167C21.3305 118.689 21.6114 119.351 21.6114 120.154C21.6114 121.197 21.19 122.14 20.3472 122.983C19.5045 123.826 18.5212 124.247 17.3975 124.247ZM2.46816 172.587C1.18391 172.587 0.120398 172.286 -0.722387 171.684C-1.56517 171.122 -1.98656 170.4 -1.98656 169.517C-1.98656 168.634 -1.62537 167.892 -0.902984 167.29C-0.501658 167.691 0.0401326 168.012 0.722387 168.253C1.40464 168.534 2.12703 168.674 2.88955 168.674C4.37445 168.674 5.5383 168.253 6.38109 167.41C7.264 166.607 7.86599 165.363 8.18705 163.678L13.6652 132.976C14.1066 130.568 15.7922 129.364 18.7219 129.364L12.6418 163.918C12.1201 166.768 10.9963 168.915 9.27063 170.36C7.58506 171.845 5.31757 172.587 2.46816 172.587ZM45.8913 156.574C45.4499 159.223 43.8044 160.547 40.955 160.547L41.6774 156.574C42.1189 156.253 42.6005 155.772 43.1222 155.129L42.9416 154.828C41.2961 156.634 39.4701 158.039 37.4635 159.042C35.4569 160.046 33.4101 160.547 31.3232 160.547C28.554 160.547 26.3267 159.765 24.6411 158.2C22.9555 156.594 22.1128 154.507 22.1128 151.939C22.1128 151.297 22.173 150.614 22.2934 149.892L25.2431 132.916C25.6444 130.548 27.3501 129.364 30.36 129.364L26.7481 149.772C26.6277 150.414 26.5675 151.016 26.5675 151.578C26.5675 154.949 28.6544 156.634 32.8282 156.634C34.3532 156.634 35.8381 156.313 37.2829 155.671C38.7277 154.989 39.9517 154.106 40.955 153.022C41.9583 151.939 42.5603 150.775 42.761 149.531L45.6505 132.916C45.8913 131.712 46.4331 130.829 47.2759 130.267C48.1187 129.665 49.2825 129.364 50.7674 129.364L45.8913 156.574ZM77.785 131.531C77.785 132.093 77.6245 132.555 77.3034 132.916C77.0225 133.237 76.4406 133.759 75.5576 134.481L67.3104 140.983L76.4004 159.524C76.0794 159.845 75.678 160.086 75.1964 160.246C74.755 160.447 74.2935 160.547 73.8119 160.547C73.2099 160.547 72.7082 160.427 72.3069 160.186C71.9056 159.985 71.5845 159.604 71.3437 159.042L64.0596 143.571L58.2204 148.207L56.7154 156.996C56.2338 159.363 54.5683 160.547 51.7189 160.547L58.6417 121.177C58.8424 119.933 59.3842 118.99 60.2671 118.348C61.15 117.666 62.3139 117.324 63.7587 117.324L59.0631 143.511L76.7014 129.424C77.4238 130.267 77.785 130.97 77.785 131.531ZM92.609 160.547C90.482 160.547 88.8165 159.985 87.6125 158.862C86.4486 157.738 85.8667 156.173 85.8667 154.166C85.8667 153.484 85.9269 152.822 86.0473 152.18L89.298 133.578H83.8801C84.0808 132.414 84.5022 131.511 85.1443 130.869C85.8266 130.227 86.6694 129.906 87.6727 129.906H89.9602L91.0438 123.886C91.4853 121.518 93.1508 120.334 96.0403 120.334L94.3548 129.906H102.361C102.161 131.11 101.699 132.033 100.977 132.675C100.294 133.277 99.3914 133.578 98.2677 133.578H93.7528L90.502 151.999C90.3816 152.641 90.3214 153.203 90.3214 153.685C90.3214 154.728 90.6024 155.491 91.1642 155.972C91.7261 156.414 92.6291 156.634 93.8732 156.634C95.2377 156.634 96.6022 156.273 97.9667 155.551C98.1674 155.792 98.2677 156.193 98.2677 156.755C98.2677 157.838 97.7259 158.741 96.6423 159.464C95.5587 160.186 94.2143 160.547 92.609 160.547ZM111.895 160.547C109.848 160.547 108.002 160.186 106.357 159.464C104.711 158.701 103.407 157.658 102.444 156.333C101.481 155.009 100.999 153.504 100.999 151.818C100.999 151.136 101.039 150.614 101.12 150.253L102.926 139.899C103.487 136.688 105.093 134.14 107.741 132.254C110.43 130.327 113.661 129.364 117.434 129.364C119.601 129.364 121.507 129.766 123.152 130.568C124.838 131.371 126.122 132.475 127.005 133.879C127.928 135.244 128.39 136.749 128.39 138.394C128.39 138.675 128.35 139.177 128.269 139.899L126.403 150.253C125.881 153.263 124.316 155.731 121.708 157.658C119.099 159.584 115.828 160.547 111.895 160.547ZM112.618 156.695C115.146 156.695 117.273 156.093 118.999 154.889C120.765 153.685 121.808 152.099 122.129 150.133L123.875 140.019C123.955 139.377 123.995 138.916 123.995 138.635C123.995 136.989 123.373 135.685 122.129 134.722C120.925 133.719 119.119 133.217 116.711 133.217C114.183 133.217 112.036 133.859 110.27 135.143C108.544 136.387 107.501 138.013 107.139 140.019L105.394 150.133C105.313 150.695 105.273 151.076 105.273 151.277C105.273 152.922 105.875 154.246 107.079 155.25C108.323 156.213 110.17 156.695 112.618 156.695Z" fill="#626262"/>
</g>
<defs>
<clipPath id="clip0">
<rect width="321" height="175.74" fill="white"/>
</clipPath>
</defs>
</svg>
