<svg width="113" height="89" viewBox="0 0 113 89"  xmlns="http://www.w3.org/2000/svg">
<path d="M7.73825 10.2667C3.73825 16 0.271579 20.9333 0.00491248 21.4667C-0.528421 22.8 42.5382 71.2 44.6716 71.7333C45.7382 72 48.6716 69.8667 51.2049 67.0667L55.7382 62L62.6716 70C66.5382 74.4 71.8716 80.2667 74.5382 83.2L79.3382 88.4L94.5382 70.5333C102.938 60.6667 110.538 51.6 111.472 50.4C112.938 48.5333 112.405 47.0667 107.472 40.1333L101.738 32.1333L92.8049 32C83.6049 32 82.0049 31.0667 85.8716 28C91.0716 23.6 90.8049 21.8667 82.8049 10.8L75.0716 0.133328H45.0716L15.0716 -2.90871e-06L7.73825 10.2667ZM31.7382 3.46666C31.7382 3.86666 29.8716 7.86666 27.6049 12.1333L23.3382 20H14.9382C10.2716 20 6.40491 19.6 6.40491 19.2C6.40491 18.6667 8.93825 14.8 12.1382 10.5333C17.7382 2.8 17.7382 2.79999 24.8049 2.66666C28.5382 2.66666 31.7382 3.06666 31.7382 3.46666ZM58.1382 11.6L62.6716 20H45.2049H27.7382L31.2049 12.9333C36.4049 2.53333 36.5382 2.53332 45.4716 2.93332L53.4716 3.33333L58.1382 11.6ZM78.1382 10.5333C81.2049 14.8 83.7382 18.6667 83.7382 19.2C83.7382 19.6 79.8716 20 75.2049 20H66.8049L62.5382 12.1333C60.2716 7.86666 58.4049 3.86666 58.4049 3.46666C58.4049 3.06666 61.6049 2.66666 65.4716 2.66666C72.4049 2.79999 72.4049 2.8 78.1382 10.5333ZM25.6049 29.3333C27.8716 35.2 31.2049 36.8 29.8716 31.4667C29.4716 29.7333 28.6716 27.3333 28.2716 26.1333C27.6049 24.2667 29.4716 24 45.0716 24C59.6049 24 62.5382 24.2667 62.0049 25.8667C58.1382 35.7333 45.8716 62.6667 45.0716 62.6667C44.5382 62.6667 42.0049 57.8667 39.3382 52C36.6716 46.1333 33.8716 41.3333 33.0716 41.3333C31.0716 41.3333 31.3382 43.2 35.0716 51.4667C36.9382 55.7333 38.2716 59.2 38.0049 59.4667C37.7382 59.8667 18.2716 38.4 9.33825 27.7333L6.13825 24H14.8049H23.4716L25.6049 29.3333ZM81.6049 26.9333C80.1382 28.6667 73.6049 36 67.2049 43.3333C49.3382 63.6 49.6049 63.3333 53.7382 54C55.7382 49.6 59.4716 41.0667 62.0049 34.9333L66.8049 24H75.4716H84.1382L81.6049 26.9333ZM87.7382 40C89.2049 42.8 90.4049 45.6 90.4049 46C90.4049 46.4 85.8716 46.6667 80.4049 46.6667C74.9383 46.6667 70.4049 46.2667 70.4049 45.7333C70.4049 43.7333 80.4049 34.6667 82.6716 34.6667C84.0049 34.6667 86.1382 36.8 87.7382 40ZM102.805 39.8667C104.805 42.8 106.405 45.4667 106.405 45.8667C106.405 46.2667 104.005 46.6667 101.072 46.6667C96.4049 46.6667 95.3382 46 93.0716 42.2667C89.3382 36.2667 89.7383 34.6667 94.8049 34.6667C98.2716 34.6667 99.7383 35.7333 102.805 39.8667ZM85.4716 64.6667C82.1382 72.4 79.2049 78.5333 78.9383 78.2667C78.6716 78 75.7382 71.7333 72.5382 64.2667L66.5382 50.6667H79.0716H91.6049L85.4716 64.6667ZM100.272 58.2667C90.9382 69.4667 85.0716 76.1333 85.0716 75.4667C85.0716 74.8 94.1382 53.4667 95.2049 51.8667C95.6049 51.2 98.2716 50.6667 101.338 50.6667H106.672L100.272 58.2667ZM68.9383 65.2C71.2049 70.6667 72.9382 75.2 72.8049 75.3333C72.5382 75.4667 69.2049 71.8667 65.2049 67.0667C58.2716 58.8 58.1382 58.5333 60.4049 56C63.4716 52.6667 63.8716 53.0667 68.9383 65.2Z" fill="currentColor"/>
</svg>
