<svg width="84" height="98" viewBox="0 0 84 98" xmlns="http://www.w3.org/2000/svg">
<path d="M16.5185 2.93333C15.7185 4.66666 13.8518 6.53333 12.2518 7.33333C8.38514 8.93333 8.38514 9.73333 12.2518 11.3333C13.8518 12.1333 15.7185 14 16.5185 15.6C17.1851 17.3333 18.1185 18.6667 18.5185 18.6667C18.9185 18.6667 19.8518 17.3333 20.5185 15.6C21.3185 14 23.1851 12.1333 24.9185 11.3333C26.5185 10.6667 27.8518 9.73333 27.8518 9.33333C27.8518 8.93333 26.5185 8 24.9185 7.33333C23.1851 6.53333 21.3185 4.66666 20.5185 2.93333C19.8518 1.33333 18.9185 -3.51667e-06 18.5185 -3.51667e-06C18.1185 -3.51667e-06 17.1851 1.33333 16.5185 2.93333ZM20.5185 9.2C21.4518 10.8 18.9185 12.4 17.1851 11.3333C15.7185 10.4 16.6518 8 18.5185 8C19.1851 8 19.9851 8.53333 20.5185 9.2Z" fill="currentColor"/>
<path d="M46.5186 1.06667C46.5186 1.86667 49.052 2.80001 52.252 3.33334C68.7853 6.13334 80.252 19.3333 80.3853 36C80.3853 47.0667 77.1853 53.3333 66.252 64.1333L57.9853 72H47.052C37.452 72 35.9853 71.7333 35.1853 69.6C34.7853 68.1333 32.1186 65.2 29.052 62.8C21.852 56.9333 17.1853 49.4667 16.1186 42.1333C15.052 34.8 12.3853 33.8667 12.9186 41.0667C13.5853 48.8 17.852 56.2667 26.1186 64.1333C31.7186 69.4667 33.052 71.4667 31.452 71.7333C28.3853 72.4 28.652 74.6667 31.7186 74.6667C35.1853 74.6667 36.652 77.3333 34.3853 78.9333C32.9186 79.8667 32.9186 80.4 34.252 80.9333C35.052 81.2 35.852 82.6667 35.852 84.1333C35.852 85.6 36.652 87.7333 37.5853 88.8C42.3853 94.8 45.3186 97.3333 47.5853 97.3333C50.7853 97.3333 57.1853 92.4 57.1853 89.8667C57.1853 88.8 57.852 88 58.5186 88C59.3186 88 59.852 86.8 59.852 85.3333C59.852 84 60.9186 82.1333 62.252 81.3333C63.852 80.2667 63.9853 79.6 62.9186 79.2C60.1186 78 60.9186 74.6667 63.852 74.6667C65.3186 74.6667 66.5186 74 66.5186 73.3333C66.5186 72.5333 65.452 72 64.252 72C62.652 72 64.252 69.7333 69.3186 64.9333C79.9853 55.0667 83.1853 48.5333 83.1853 36C83.1853 28.2667 82.5186 24.8 80.252 20.5333C76.5186 13.4667 70.3853 7.33334 63.7186 3.86667C57.5853 0.800008 46.5186 -1.06666 46.5186 1.06667ZM57.852 76.6667C57.852 77.3333 53.452 78.1333 48.252 78.4C40.1186 78.6667 38.5186 78.4 38.5186 76.6667C38.5186 74.9333 40.1186 74.6667 48.252 74.9333C53.452 75.2 57.852 75.8667 57.852 76.6667ZM57.1853 83.3333C57.1853 84.9333 55.3186 85.3333 47.852 85.3333C40.3853 85.3333 38.5186 84.9333 38.5186 83.3333C38.5186 81.7333 40.3853 81.3333 47.852 81.3333C55.3186 81.3333 57.1853 81.7333 57.1853 83.3333ZM54.5186 89.3333C54.5186 90 53.052 91.6 51.3186 92.6667C47.7186 95.0667 43.452 93.8667 41.9853 90C41.452 88.4 42.5186 88 47.852 88C51.5853 88 54.5186 88.5333 54.5186 89.3333Z" fill="currentColor"/>
<path d="M36.6518 9.19999C36.2518 9.73333 34.1184 10.6667 31.8518 11.0667C28.9184 11.7333 27.7184 12.9333 27.0518 15.6C26.5184 17.6 25.0518 20.8 23.5851 22.5333C22.2518 24.2667 21.4518 26.8 21.8518 28C22.2518 29.3333 21.7184 31.0667 20.5184 32C18.1184 34 17.9851 37.6 20.1184 39.7333C21.0518 40.6667 21.8518 43.3333 21.9851 45.6C22.1184 48 23.0518 50.4 24.1184 51.2C25.1851 52 26.5184 54.4 27.0518 56.4C27.7184 59.0667 28.9184 60.2667 31.8518 60.9333C34.1184 61.3333 36.2518 62.2667 36.6518 62.8C37.9851 64.9333 43.7184 64 45.1851 61.4667C45.9851 59.8667 46.5184 49.0667 46.5184 35.4667C46.5184 16.1333 46.1184 11.8667 44.3851 10.1333C42.1184 7.86666 37.7184 7.33333 36.6518 9.19999ZM42.3851 12.5333C43.4518 13.7333 43.8518 21.6 43.5851 37.4667C43.1851 59.6 43.0518 60.6667 40.5184 60.6667C38.5184 60.6667 37.9851 59.8667 38.1184 57.6C38.5184 54.1333 37.5851 53.8667 34.5184 56.6667C32.5184 58.5333 32.1184 58.5333 30.5184 56.6667C29.1851 55.0667 29.1851 54.1333 30.2518 53.0667C32.5184 50.8 32.2518 49.2 29.7184 49.6C26.9184 50.1333 24.5184 46.4 25.5851 43.4667C26.6518 40.8 32.6518 40.6667 33.7184 43.3333C34.5184 45.4667 37.1851 46.1333 37.1851 44.2667C37.1851 40.8 33.1851 38.2667 27.7184 38.1333C23.4518 38 21.8518 37.4667 21.8518 36C21.8518 34.6667 23.0518 34.1333 25.1851 34.2667C30.7851 34.6667 34.3851 33.4667 35.9851 30.5333C38.1184 26.5333 36.2518 25.7333 33.0518 29.2C30.1184 32.4 28.1184 32.4 26.1184 29.0667C24.2518 26.1333 25.9851 22.6667 29.1851 22.6667C32.2518 22.6667 32.6518 21.3333 30.2518 18.9333C27.5851 16.2667 31.1851 13.6 34.5184 15.7333C37.9851 17.8667 38.9184 17.7333 37.9851 15.2C36.3851 11.2 39.5851 9.19999 42.3851 12.5333Z" fill="currentColor"/>
<path d="M51.3184 10.9333C49.5851 13.3333 49.1851 18.1333 49.1851 35.3333C49.1851 47.0667 49.5851 58 49.9851 59.6C51.0517 63.6 54.7851 64.5333 60.7851 62.5333C67.1851 60.2667 69.1851 58.8 69.1851 56.4C69.1851 55.3333 70.3851 52.9333 71.8517 51.0667C73.3184 49.2 74.5184 46.2667 74.5184 44.5333C74.5184 42.9333 75.1851 41.0667 75.8517 40.6667C77.7184 39.4667 77.4517 33.7333 75.4517 31.7333C74.3851 30.9333 73.8517 28.8 74.2517 27.2C74.5184 25.4667 73.7184 23.2 71.9851 21.4667C70.3851 19.8667 69.1851 17.4667 69.1851 16C69.1851 13.3333 64.6517 10 62.6517 11.2C61.9851 11.6 60.7851 11.0667 59.8517 10C57.4517 7.06667 53.7184 7.6 51.3184 10.9333ZM57.5851 14.5333C57.1851 17.4667 59.0517 18.4 60.5184 16C62.1184 13.4667 66.5184 14.5333 66.5184 17.3333C66.5184 18.8 65.9851 20 65.1851 20C64.5184 20 63.8517 20.8 63.8517 21.8667C63.8517 23.0667 64.9184 23.4667 67.0517 23.0667C72.2517 22 73.1851 29.3333 68.1184 31.3333C66.6517 31.8667 65.0517 31.0667 63.5851 29.3333C62.2517 27.7333 60.5184 26.6667 59.7184 26.9333C58.9184 27.2 59.4517 28.9333 61.1851 31.0667C63.5851 34 65.0517 34.6667 68.9184 34.4C72.7851 34.1333 73.8517 34.5333 74.2517 36.5333C74.7851 38.8 74.2517 38.9333 69.8517 38.2667C65.7184 37.6 64.3851 38 61.4517 40.9333C58.9184 43.4667 58.3851 44.6667 59.7184 45.0667C60.7851 45.4667 62.1184 44.6667 62.7851 43.4667C64.2517 40.8 69.9851 40.6667 71.0517 43.3333C72.2517 46.6667 70.5184 49.3333 67.0517 49.3333C63.4517 49.3333 63.1851 49.7333 65.4517 53.3333C67.9851 57.2 64.9184 60 61.4517 56.9333C58.1184 53.8667 57.1851 54.1333 57.5851 57.6C57.7184 59.6 57.1851 60.6667 55.8517 60.6667C54.1184 60.6667 53.8517 57.0667 53.4517 37.3333C53.3184 24.5333 53.4517 13.3333 53.8517 12.2667C54.9184 9.46667 57.8517 11.2 57.5851 14.5333Z" fill="currentColor"/>
<path d="M7.18518 18.9333C6.38518 20.6667 4.51851 22.5333 2.91851 23.3333C-1.08149 25.0667 -0.948156 26.1333 3.18518 27.2C5.18518 27.7333 6.78518 29.3333 7.31851 31.3333C8.38518 35.6 9.98518 35.6 11.0518 31.3333C11.5852 29.3333 13.1852 27.7333 15.1852 27.2C19.3185 26.1333 19.4518 25.0667 15.5852 23.3333C13.8518 22.5333 11.9852 20.6667 11.1852 18.9333C10.5185 17.3333 9.58518 16 9.18518 16C8.78518 16 7.85184 17.3333 7.18518 18.9333ZM11.1852 23.8667C12.1185 25.4667 9.58518 27.0667 7.85184 26C6.38518 25.0667 7.31851 22.6667 9.18518 22.6667C9.85184 22.6667 10.6518 23.2 11.1852 23.8667Z" fill="currentColor"/>
</svg>
