<svg width="75" height="102" viewBox="0 0 75 102" xmlns="http://www.w3.org/2000/svg">
<path d="M29.4333 1.07799C25.0333 2.81132 20.3667 7.34466 17.9667 11.878C16.7667 14.1447 16.1 19.7447 16.1 26.9447V38.278H9.7C6.23333 38.278 2.63333 38.9447 1.7 39.878C-0.566667 42.1447 -0.566667 97.078 1.7 99.3447C3.96667 101.611 70.9 101.611 73.1667 99.3447C75.4333 97.078 75.4333 42.1447 73.1667 39.878C72.2333 38.9447 68.6333 38.278 65.1667 38.278H58.7667V26.4113C58.7667 13.6113 56.7667 8.81132 49.1667 3.21132C45.0333 0.144657 34.3667 -1.05534 29.4333 1.07799ZM47.4333 6.14466C53.5667 9.61132 56.1 15.878 56.1 27.878C56.1 36.278 55.7 38.278 54.1 38.278C52.5 38.278 52.1 36.1447 52.1 26.8113C52.1 16.0113 51.8333 15.2113 48.2333 11.6113C41.4333 4.67799 33.4333 4.67799 26.6333 11.6113C23.0333 15.2113 22.7667 16.0113 22.7667 26.8113C22.7667 36.1447 22.3667 38.278 20.7667 38.278C19.1667 38.278 18.7667 36.278 18.7667 28.278C18.7667 13.2113 21.7 7.74466 31.7 4.27799C37.3 2.27799 41.4333 2.81132 47.4333 6.14466ZM43.4333 11.078C47.1667 12.5447 49.4333 19.078 49.4333 28.9447V38.278H37.4333H25.4333V28.9447C25.4333 19.478 27.7 12.5447 31.0333 11.2113C33.5667 10.1447 40.9 10.1447 43.4333 11.078ZM71.4333 64.9447V86.9447H37.4333H3.43333L3.03333 66.278C2.9 54.9447 3.03333 44.9447 3.3 44.0113C3.83333 42.5447 10.9 42.278 37.7 42.5447L71.4333 42.9447V64.9447ZM71.5667 92.278C72.1 93.3447 71.7 95.2113 70.7667 96.278C68.3667 99.2113 6.5 99.2113 4.1 96.278C3.16667 95.2113 2.76667 93.3447 3.3 92.278C4.36667 89.2113 70.5 89.2113 71.5667 92.278Z" fill="currentColor"/>
<path d="M42.9 57.7447L33.1666 69.2113L28.7666 64.9447C23.5666 59.878 19.5666 60.0113 19.0333 65.078C18.4999 70.0113 30.3666 83.078 34.1 81.7447C35.5666 81.2113 42.1 74.5447 48.5 66.8113C61.0333 52.0113 62.9 47.3447 56.1 46.5447C53.4333 46.278 51.0333 48.278 42.9 57.7447ZM57.4333 50.1447C57.4333 51.3447 33.8333 79.6113 32.9 79.6113C32.6333 79.6113 29.9666 76.5447 26.7666 72.8113C22.9 68.278 21.5666 65.6113 22.5 64.678C23.3 63.878 25.0333 64.9447 27.5666 68.1447C29.7 70.8113 32.1 72.9447 32.9 72.9447C33.5666 72.9447 38.9 67.6113 44.5 60.9447C54.1 49.878 57.4333 47.078 57.4333 50.1447Z" fill="currentColor"/>
</svg>
